<svg width="559.1187866210937px" height="122px" xmlns="http://www.w3.org/2000/svg" viewBox="-29.559393310546852 14 559.1187866210937 122" style="background: rgb(253, 253, 253);" preserveAspectRatio="xMidYMid"><defs><filter id="editing-extrusion" x="-100%" y="-100%" width="300%" height="300%"><feFlood result="color1" flood-color="#bbcedd"></feFlood><feConvolveMatrix order="1,1" divisor="1" kernelMatrix="1" in="SourceAlpha" result="extrude"></feConvolveMatrix><feComposite in="color1" in2="extrude" result="comp-extrude" operator="in"></feComposite><feOffset dx="0.5" dy="0.5" in="comp-extrude" result="offset-extrude"></feOffset><feMerge><feMergeNode in="offset-extrude"></feMergeNode><feMergeNode in="SourceGraphic"></feMergeNode></feMerge></filter></defs><g filter="url(#editing-extrusion)"><g transform="translate(53.0399934053421, 99)"><path d="M16.45-3.52L16.45-3.52L16.45-3.52Q14.46 1.28 8.13 1.28L8.13 1.28L8.13 1.28Q4.86 1.28 2.82-0.96L2.82-0.96L2.82-0.96Q1.09-2.94 1.09-4.93L1.09-4.93L1.09-4.93Q1.09-10.11 3.46-20.22L3.46-20.22L5.82-32.64L18.82-33.92L14.91-13.70L14.91-13.70Q13.82-8.96 13.82-7.30L13.82-7.30L13.82-7.30Q13.82-3.65 16.45-3.52ZM6.98-41.54L6.98-41.54L6.98-41.54Q6.98-44.03 9.06-45.38L9.06-45.38L9.06-45.38Q11.14-46.72 14.14-46.72L14.14-46.72L14.14-46.72Q17.15-46.72 18.98-45.38L18.98-45.38L18.98-45.38Q20.80-44.03 20.80-41.54L20.80-41.54L20.80-41.54Q20.80-39.04 18.78-37.76L18.78-37.76L18.78-37.76Q16.77-36.48 13.76-36.48L13.76-36.48L13.76-36.48Q10.75-36.48 8.86-37.76L8.86-37.76L8.86-37.76Q6.98-39.04 6.98-41.54ZM24.64-9.47L24.64-9.47L24.64-9.47Q26.56-6.98 31.10-6.98L31.10-6.98L31.10-6.98Q37.06-6.98 40.38-11.14L40.38-11.14L40.38-11.14Q42.62-14.02 43.65-19.20L43.65-19.20L43.65-19.20Q41.98-16.45 39.78-15.01L39.78-15.01L39.78-15.01Q37.57-13.57 34.50-13.57L34.50-13.57L34.50-13.57Q31.42-13.57 29.47-14.66L29.47-14.66L29.47-14.66Q27.52-15.74 26.30-17.54L26.30-17.54L26.30-17.54Q24-20.86 24-25.60L24-25.60L24-25.60Q24-30.34 25.66-33.66L25.66-33.66L25.66-33.66Q27.33-36.99 30.02-39.23L30.02-39.23L30.02-39.23Q35.26-43.71 42.24-43.71L42.24-43.71L42.24-43.71Q48.32-43.71 52.03-39.74L52.03-39.74L52.03-39.74Q55.87-35.52 55.87-27.97L55.87-27.97L55.87-27.97Q55.87-22.91 54.14-17.73L54.14-17.73L54.14-17.73Q52.42-12.54 49.28-8.32L49.28-8.32L49.28-8.32Q46.14-4.10 41.86-1.41L41.86-1.41L41.86-1.41Q37.57 1.28 32.70 1.28L32.70 1.28L32.70 1.28Q27.84 1.28 25.09-0.26L25.09-0.26L25.09-0.26Q22.34-1.79 22.34-4.61L22.34-4.61L22.34-4.61Q22.34-7.68 24.64-9.47ZM36.29-32.38L36.29-32.38L36.29-32.38Q35.71-30.66 35.49-28.90L35.49-28.90L35.49-28.90Q35.26-27.14 35.26-25.41L35.26-25.41L35.26-25.41Q35.26-23.68 36.26-22.08L36.26-22.08L36.26-22.08Q37.25-20.48 38.59-20.48L38.59-20.48L38.59-20.48Q39.94-20.48 40.99-21.25L40.99-21.25L40.99-21.25Q42.05-22.02 42.94-23.36L42.94-23.36L42.94-23.36Q44.80-26.30 44.80-29.82L44.80-29.82L44.80-29.82Q44.80-33.34 43.68-34.98L43.68-34.98L43.68-34.98Q42.56-36.61 40.77-36.61L40.77-36.61L40.77-36.61Q38.98-36.61 37.92-35.36L37.92-35.36L37.92-35.36Q36.86-34.11 36.29-32.38ZM71.74 0L57.79 0L65.92-42.24L80-42.24L71.74 0ZM108.48 1.28L108.48 1.28L108.48 1.28Q100.74 1.28 100.74-4.74L100.74-4.74L100.74-4.74Q100.80-6.40 101.31-9.22L101.31-9.22L102.46-15.10L102.46-15.10Q104.19-23.42 104.19-25.28L104.19-25.28L104.19-25.28Q104.19-28.99 102.02-28.99L102.02-28.99L102.02-28.99Q98.37-28.99 96.45-19.46L96.45-19.46L92.67 0L79.81 1.28L86.46-32.70L96.96-33.92L95.94-27.65L95.94-27.65Q98.94-33.92 108.16-33.92L108.16-33.92L108.16-33.92Q112.64-33.92 114.53-32.03L114.53-32.03L114.53-32.03Q116.42-30.14 116.42-25.92L116.42-25.92L116.42-25.92Q116.42-21.95 114.37-12.67L114.37-12.67L114.37-12.67Q113.41-8.51 113.41-6.94L113.41-6.94L113.41-6.94Q113.41-5.38 114.27-4.48L114.27-4.48L114.27-4.48Q115.14-3.58 116.42-3.46L116.42-3.46L116.42-3.46Q115.78-1.28 113.57 0L113.57 0L113.57 0Q111.36 1.28 108.48 1.28ZM148.61 1.28L148.61 1.28L148.61 1.28Q140.86 1.28 140.86-4.74L140.86-4.74L140.86-4.74Q140.93-6.40 141.44-9.22L141.44-9.22L142.59-15.10L142.59-15.10Q144.32-23.42 144.32-25.28L144.32-25.28L144.32-25.28Q144.32-28.99 142.14-28.99L142.14-28.99L142.14-28.99Q138.50-28.99 136.58-19.46L136.58-19.46L132.80 0L119.94 1.28L126.59-32.70L137.09-33.92L136.06-27.65L136.06-27.65Q139.07-33.92 148.29-33.92L148.29-33.92L148.29-33.92Q152.77-33.92 154.66-32.03L154.66-32.03L154.66-32.03Q156.54-30.14 156.54-25.92L156.54-25.92L156.54-25.92Q156.54-21.95 154.50-12.67L154.50-12.67L154.50-12.67Q153.54-8.51 153.54-6.94L153.54-6.94L153.54-6.94Q153.54-5.38 154.40-4.48L154.40-4.48L154.40-4.48Q155.26-3.58 156.54-3.46L156.54-3.46L156.54-3.46Q155.90-1.28 153.70 0L153.70 0L153.70 0Q151.49 1.28 148.61 1.28ZM175.62 1.28L175.62 1.28L175.62 1.28Q161.54 1.28 161.54-11.97L161.54-11.97L161.54-11.97Q161.54-21.38 166.72-27.46L166.72-27.46L166.72-27.46Q172.22-33.92 181.76-33.92L181.76-33.92L181.76-33.92Q188.67-33.92 192.19-30.72L192.19-30.72L192.19-30.72Q195.71-27.52 195.71-20.80L195.71-20.80L195.71-20.80Q195.71-10.56 190.21-4.61L190.21-4.61L190.21-4.61Q184.83 1.28 175.62 1.28ZM177.28-26.56L177.28-26.56L177.28-26.56Q176.51-24.83 175.90-22.24L175.90-22.24L175.90-22.24Q175.30-19.65 174.53-15.55L174.53-15.55L174.53-15.55Q173.76-11.46 173.76-6.40L173.76-6.40L173.76-6.40Q173.76-4.74 174.30-3.65L174.30-3.65L174.30-3.65Q174.85-2.56 176.32-2.56L176.32-2.56L176.32-2.56Q177.79-2.56 178.72-3.26L178.72-3.26L178.72-3.26Q179.65-3.97 180.35-5.63L180.35-5.63L180.35-5.63Q181.63-8.58 182.66-14.05L182.66-14.05L182.66-14.05Q183.68-19.52 183.78-21.89L183.78-21.89L183.78-21.89Q183.87-24.26 183.87-26.02L183.87-26.02L183.87-26.02Q183.87-27.78 183.36-28.93L183.36-28.93L183.36-28.93Q182.85-30.08 181.41-30.08L181.41-30.08L181.41-30.08Q179.97-30.08 179.01-29.18L179.01-29.18L179.01-29.18Q178.05-28.29 177.28-26.56ZM222.72-31.55L222.72-31.55L222.72-31.55Q224.83-33.92 228.48-33.92L228.48-33.92L228.48-33.92Q230.72-33.92 232.45-32.70L232.45-32.70L232.45-32.70Q234.18-31.49 234.18-29.22L234.18-29.22L234.18-29.22Q234.18-26.94 233.47-24.51L233.47-24.51L233.47-24.51Q232.77-22.08 231.68-19.58L231.68-19.58L231.68-19.58Q229.50-14.72 226.50-10.69L226.50-10.69L226.50-10.69Q222.27-4.86 218.21-1.79L218.21-1.79L218.21-1.79Q214.14 1.28 209.73 1.28L209.73 1.28L209.73 1.28Q206.14 1.28 203.97 0.45L203.97 0.45L203.97 0.45Q203.58-12.99 203.10-17.79L203.10-17.79L203.10-17.79Q202.62-22.59 202.24-25.22L202.24-25.22L202.24-25.22Q201.60-30.34 199.68-31.55L199.68-31.55L199.68-31.55Q201.15-32.83 202.59-33.38L202.59-33.38L202.59-33.38Q204.03-33.92 207.01-33.92L207.01-33.92L207.01-33.92Q209.98-33.92 212.10-31.58L212.10-31.58L212.10-31.58Q214.21-29.25 214.62-25.12L214.62-25.12L214.62-25.12Q215.04-20.99 215.04-16L215.04-16L215.04-16Q215.04-11.01 214.66-4.99L214.66-4.99L214.66-4.99Q216.64-6.40 218.75-10.69L218.75-10.69L218.75-10.69Q221.63-16.64 222.66-23.81L222.66-23.81L222.66-23.81Q222.98-25.98 222.98-28.29L222.98-28.29L222.98-28.29Q222.98-30.59 222.72-31.55ZM238.69-1.92L238.69-1.92L238.69-1.92Q237.18-3.58 236.51-6.21L236.51-6.21L236.51-6.21Q235.84-8.83 235.84-13.12L235.84-13.12L235.84-13.12Q235.84-17.41 237.31-21.31L237.31-21.31L237.31-21.31Q238.78-25.22 241.47-28.03L241.47-28.03L241.47-28.03Q246.98-33.92 256.06-33.92L256.06-33.92L256.06-33.92Q259.33-33.92 261.70-32.83L261.70-32.83L272.64-33.92L267.90-8.96L267.90-8.96Q267.71-8.19 267.71-6.78L267.71-6.78L267.71-6.78Q267.71-5.38 268.58-4.48L268.58-4.48L268.58-4.48Q269.44-3.58 270.72-3.46L270.72-3.46L270.72-3.46Q270.08-1.28 267.74 0L267.74 0L267.74 0Q265.41 1.28 262.78 1.28L262.78 1.28L262.78 1.28Q260.16 1.28 258.40 0.29L258.40 0.29L258.40 0.29Q256.64-0.70 256.13-2.37L256.13-2.37L256.13-2.37Q255.10-0.77 252.93 0.26L252.93 0.26L252.93 0.26Q250.75 1.28 247.84 1.28L247.84 1.28L247.84 1.28Q244.93 1.28 242.56 0.51L242.56 0.51L242.56 0.51Q240.19-0.26 238.69-1.92ZM252.19-27.90L252.19-27.90L252.19-27.90Q251.46-26.75 250.82-24.80L250.82-24.80L250.82-24.80Q250.18-22.85 249.12-17.63L249.12-17.63L249.12-17.63Q248.06-12.42 248.06-8.70L248.06-8.70L248.06-8.70Q248.06-4.99 248.64-3.90L248.64-3.90L248.64-3.90Q249.22-2.82 250.24-2.82L250.24-2.82L250.24-2.82Q252.29-2.82 253.79-4.77L253.79-4.77L253.79-4.77Q255.30-6.72 255.87-10.18L255.87-10.18L259.26-28.93L259.26-28.93Q257.92-30.08 256.35-30.08L256.35-30.08L256.35-30.08Q254.78-30.08 253.86-29.57L253.86-29.57L253.86-29.57Q252.93-29.06 252.19-27.90ZM277.12-6.40L277.12-6.40L277.12-6.40Q277.12-8.13 278.02-12.48L278.02-12.48L281.41-29.76L277.63-29.76L277.89-31.68L277.89-31.68Q285.57-33.98 292.99-39.62L292.99-39.62L296.06-39.62L294.53-32.64L299.52-32.64L298.94-29.76L294.02-29.76L290.75-12.48L290.75-12.48Q289.92-8.51 289.92-7.17L289.92-7.17L289.92-7.17Q289.92-4.10 292.61-3.46L292.61-3.46L292.61-3.46Q291.97-1.28 289.66 0L289.66 0L289.66 0Q287.36 1.28 284.10 1.28L284.10 1.28L284.10 1.28Q280.83 1.28 278.98-0.77L278.98-0.77L278.98-0.77Q277.12-2.82 277.12-6.40ZM314.56-3.52L314.56-3.52L314.56-3.52Q312.58 1.28 306.24 1.28L306.24 1.28L306.24 1.28Q302.98 1.28 300.93-0.96L300.93-0.96L300.93-0.96Q299.20-2.94 299.20-4.93L299.20-4.93L299.20-4.93Q299.20-10.11 301.57-20.22L301.57-20.22L303.94-32.64L316.93-33.92L313.02-13.70L313.02-13.70Q311.94-8.96 311.94-7.30L311.94-7.30L311.94-7.30Q311.94-3.65 314.56-3.52ZM305.09-41.54L305.09-41.54L305.09-41.54Q305.09-44.03 307.17-45.38L307.17-45.38L307.17-45.38Q309.25-46.72 312.26-46.72L312.26-46.72L312.26-46.72Q315.26-46.72 317.09-45.38L317.09-45.38L317.09-45.38Q318.91-44.03 318.91-41.54L318.91-41.54L318.91-41.54Q318.91-39.04 316.90-37.76L316.90-37.76L316.90-37.76Q314.88-36.48 311.87-36.48L311.87-36.48L311.87-36.48Q308.86-36.48 306.98-37.76L306.98-37.76L306.98-37.76Q305.09-39.04 305.09-41.54ZM333.95 1.28L333.95 1.28L333.95 1.28Q319.87 1.28 319.87-11.97L319.87-11.97L319.87-11.97Q319.87-21.38 325.06-27.46L325.06-27.46L325.06-27.46Q330.56-33.92 340.10-33.92L340.10-33.92L340.10-33.92Q347.01-33.92 350.53-30.72L350.53-30.72L350.53-30.72Q354.05-27.52 354.05-20.80L354.05-20.80L354.05-20.80Q354.05-10.56 348.54-4.61L348.54-4.61L348.54-4.61Q343.17 1.28 333.95 1.28ZM335.62-26.56L335.62-26.56L335.62-26.56Q334.85-24.83 334.24-22.24L334.24-22.24L334.24-22.24Q333.63-19.65 332.86-15.55L332.86-15.55L332.86-15.55Q332.10-11.46 332.10-6.40L332.10-6.40L332.10-6.40Q332.10-4.74 332.64-3.65L332.64-3.65L332.64-3.65Q333.18-2.56 334.66-2.56L334.66-2.56L334.66-2.56Q336.13-2.56 337.06-3.26L337.06-3.26L337.06-3.26Q337.98-3.97 338.69-5.63L338.69-5.63L338.69-5.63Q339.97-8.58 340.99-14.05L340.99-14.05L340.99-14.05Q342.02-19.52 342.11-21.89L342.11-21.89L342.11-21.89Q342.21-24.26 342.21-26.02L342.21-26.02L342.21-26.02Q342.21-27.78 341.70-28.93L341.70-28.93L341.70-28.93Q341.18-30.08 339.74-30.08L339.74-30.08L339.74-30.08Q338.30-30.08 337.34-29.18L337.34-29.18L337.34-29.18Q336.38-28.29 335.62-26.56ZM384.90 1.28L384.90 1.28L384.90 1.28Q377.15 1.28 377.15-4.74L377.15-4.74L377.15-4.74Q377.22-6.40 377.73-9.22L377.73-9.22L378.88-15.10L378.88-15.10Q380.61-23.42 380.61-25.28L380.61-25.28L380.61-25.28Q380.61-28.99 378.43-28.99L378.43-28.99L378.43-28.99Q374.78-28.99 372.86-19.46L372.86-19.46L369.09 0L356.22 1.28L362.88-32.70L373.38-33.92L372.35-27.65L372.35-27.65Q375.36-33.92 384.58-33.92L384.58-33.92L384.58-33.92Q389.06-33.92 390.94-32.03L390.94-32.03L390.94-32.03Q392.83-30.14 392.83-25.92L392.83-25.92L392.83-25.92Q392.83-21.95 390.78-12.67L390.78-12.67L390.78-12.67Q389.82-8.51 389.82-6.94L389.82-6.94L389.82-6.94Q389.82-5.38 390.69-4.48L390.69-4.48L390.69-4.48Q391.55-3.58 392.83-3.46L392.83-3.46L392.83-3.46Q392.19-1.28 389.98 0L389.98 0L389.98 0Q387.78 1.28 384.90 1.28Z" fill="#ffffff"></path></g></g><style>text {
  font-size: 64px;
  font-family: Arial Black;
  dominant-baseline: central;
  text-anchor: middle;
}</style></svg>