<svg width="220" height="40" viewBox="0 0 220 40" fill="none" xmlns="http://www.w3.org/2000/svg">
<g clip-path="url(#clip0_241_3532)">
<path d="M131.606 0.0283203H113.163C112.37 0.0283203 111.585 0.18453 110.852 0.488031C110.12 0.791532 109.454 1.23638 108.893 1.79717C108.332 2.35797 107.888 3.02373 107.584 3.75643C107.281 4.48914 107.124 5.27444 107.125 6.06751V33.9133C107.124 34.7064 107.281 35.4917 107.584 36.2244C107.888 36.9571 108.332 37.6228 108.893 38.1836C109.454 38.7444 110.12 39.1892 110.852 39.4927C111.585 39.7962 112.37 39.9524 113.163 39.9524H131.606C132.4 39.9524 133.187 39.796 133.92 39.492C134.654 39.1881 135.321 38.7426 135.883 38.181C136.444 37.6193 136.89 36.9526 137.194 36.2188C137.498 35.4849 137.654 34.6985 137.654 33.9042V16.8314H121.278V25.0512H126.954V30.0552H117.861V9.92599H126.954V13.5574H137.654V6.07709C137.654 4.47292 137.017 2.93447 135.883 1.80013C134.748 0.665783 133.21 0.0284525 131.606 0.0283203V0.0283203Z" fill="#CEFA05"/>
<path d="M220 23.2512V6.06751C220 5.27443 219.844 4.48911 219.54 3.75639C219.237 3.02368 218.792 2.35791 218.231 1.79712C217.67 1.23632 217.005 0.791475 216.272 0.487984C215.539 0.184493 214.754 0.0282985 213.961 0.0283203H189.47V39.9524H203.299L220 23.2512ZM200.17 9.92599H209.265V30.0552H200.17V9.92599Z" fill="#CEFA05"/>
<path d="M165.662 25.8845V24.3694C167.263 24.3693 168.799 23.7332 169.931 22.601C171.063 21.4688 171.699 19.9332 171.699 18.3321V6.08912C171.699 4.48795 171.063 2.95239 169.931 1.82019C168.799 0.687992 167.263 0.0518753 165.662 0.0517578H141.177V39.9662H151.91V26.3825H157.277L161.637 39.9662H173.377L170.084 29.1597C169.795 28.2121 169.209 27.3823 168.413 26.7926C167.617 26.203 166.653 25.8846 165.662 25.8845ZM160.966 15.9844H151.909V9.94705H160.966V15.9844Z" fill="#CEFA05"/>
<path d="M185.905 0.0546875H175.17V39.9788H185.905V0.0546875Z" fill="#CEFA05"/>
<path d="M6.03736 39.9144H24.4853C26.0864 39.9143 27.6218 39.2781 28.7539 38.1459C29.8859 37.0137 30.5219 35.4782 30.5219 33.8771V6.047C30.5219 4.44334 29.885 2.90534 28.7511 1.77132C27.6172 0.637292 26.0793 0.000132188 24.4756 0L16.7828 0L6.35093e-09 16.7828V33.8769C-3.6359e-05 34.6697 0.156098 35.4548 0.459488 36.1873C0.762878 36.9199 1.20758 37.5854 1.76821 38.1461C2.32883 38.7067 2.9944 39.1515 3.7269 39.4549C4.45941 39.7583 5.2445 39.9145 6.03736 39.9144V39.9144ZM10.7333 9.89463H19.8242L19.7893 30.0192H10.7333V9.89463Z" fill="#CEFA05"/>
<path d="M62.4005 15.1439H45.2688V9.94524H63.9368V0.0507812H34.3442V39.9648L45.2688 39.9792V25.0389H62.4005V15.1439Z" fill="#CEFA05"/>
<path d="M96.1012 15.1439H78.9695V9.94524H97.6375V0.0507812H68.0449V39.9648L78.9695 39.9792V25.0389H96.1012V15.1439Z" fill="#CEFA05"/>
</g>
<defs>
<clipPath id="clip0_241_3532">
<rect width="220" height="39.9792" fill="white"/>
</clipPath>
</defs>
</svg>
